<svg xmlns="http://www.w3.org/2000/svg" viewBox="0 0 40 44">
	<style>
		path {fill: #000000; }
		rect { fill: #000000; }
		polygon { fill: #000000;}
		@media (prefers-color-scheme: dark) {
			path { fill: #ffffff; }
			rect { fill: #ffffff;}
			polygon { fill: #ffffff;}
		}
	</style>
    <path d="M8.82,14a6.58,6.58,0,0,1,5.43,4.3,10.35,10.35,0,0,1,5.23-1.52c4.21,0,5.88,2.79,6.24,3.86,1.83-1.74,4.26-3.29,6.93-3.29a5.8,5.8,0,0,1,3.77,1.21c2,1.64,2.51,4.23,2.51,6.54,0,4.21-1.58,8.92-3.73,11.36a1,1,0,0,1-.77.28.76.76,0,0,1-.85-.69.65.65,0,0,1,.13-.41c1.94-2.15,3.4-6.61,3.4-10.54,0-2.84-.93-6.45-4.54-6.45-2.88,0-5.59,2.94-6.2,3.61A11.75,11.75,0,0,1,27,26.37c0,5-1.91,10.53-5.55,10.53a3.15,3.15,0,0,1-1.67-.47,3.43,3.43,0,0,1-1-2.79c0-3.22,2.31-8.25,5.6-11.67a5.65,5.65,0,0,0-1.79-2.78,5.17,5.17,0,0,0-3.28-1.08,7.83,7.83,0,0,0-4.62,1.68,20.73,20.73,0,0,1,.65,5.6c0,6-2.6,11.64-6.77,11.64-2.07,0-3.69-1.36-3.69-4.11,0-3.86,3.2-10.35,7.82-13.57-.81-2.38-2.23-3.67-4.29-4-.41-.06-.77-.32-.77-.66s.44-.7.93-.7Zm4.38,6.77C9.51,24.12,6.72,29.4,6.72,32.92c0,.41,0,2.81,1.94,2.81,2.63,0,4.9-4.9,4.9-10.34A30.87,30.87,0,0,0,13.2,20.77ZM25,23.65c-2.59,3.41-4.33,7.4-4.33,10,0,.45.08,2,.89,2,1.7,0,3.6-3.93,3.68-9A15.48,15.48,0,0,0,25,23.65Z" transform="translate(-1.93)"/>
    <polygon points="20.07 0 0 12 40 12 20.07 0"/>
    <rect y="42.5" width="40" height="1.5"/>
    <rect x="3.07" y="39" width="34" height="1.5"/>
</svg>